<svg viewBox="0 0 900 560" role="img"
             aria-label="Layered sovereign cloud reference architecture. From top: an access layer with authorised ingress and authorised egress; a workload zone layer split into Level 1 to 2 general, Level 3 restricted, and Level 4 classified air-gapped; an AI and analytics layer with model hosting, training and edge inference; a control plane with identity, policy guardrails, key custody and logging; an in-country platform layer with dedicated infrastructure, on-premises nodes and tactical edge; and at the base a facility layer covering power, cooling, earthing and physical security. A continuous compliance evidence band spans every layer.">
          <g stroke="#1E2831" stroke-width="1" fill="none">
            <path d="M22 44v476"/>
          </g>

          <!-- 01 ACCESS -->
          <text x="34" y="36" fill="#C9A227" font-family="monospace" font-size="9">01 · ACCESS</text>
          <g fill="none" stroke="#14A356" stroke-width="1.3">
            <rect x="34" y="44" width="320" height="46" rx="2"/>
            <rect x="370" y="44" width="320" height="46" rx="2"/>
          </g>
          <g fill="#EDF0EE" font-family="monospace" font-size="10" text-anchor="middle">
            <text x="194" y="73">AUTHORISED INGRESS</text>
            <text x="530" y="73">AUTHORISED EGRESS</text>
          </g>

          <!-- 02 WORKLOAD ZONES -->
          <text x="34" y="122" fill="#C9A227" font-family="monospace" font-size="9">02 · WORKLOAD ZONES</text>
          <g fill="none" stroke="#14A356" stroke-width="1.3">
            <rect x="34" y="130" width="205" height="58" rx="2"/>
            <rect x="252" y="130" width="205" height="58" rx="2"/>
          </g>
          <rect x="470" y="130" width="220" height="58" rx="2" fill="none" stroke="#C9A227" stroke-width="1.6" stroke-dasharray="6 4"/>
          <g fill="#A7B0AC" font-family="monospace" font-size="9" text-anchor="middle">
            <text x="136" y="155">LEVEL 1–2</text><text x="136" y="170">GENERAL</text>
            <text x="354" y="155">LEVEL 3</text><text x="354" y="170">RESTRICTED</text>
            <text x="580" y="155" fill="#C9A227">LEVEL 4 · CLASSIFIED</text>
            <text x="580" y="170" fill="#C9A227">AIR-GAPPED</text>
          </g>

          <!-- 03 AI -->
          <text x="34" y="220" fill="#C9A227" font-family="monospace" font-size="9">03 · AI &amp; ANALYTICS</text>
          <rect x="34" y="228" width="656" height="54" rx="2" fill="none" stroke="#14A356" stroke-width="1.3"/>
          <g stroke="#1E2831" stroke-width="1">
            <path d="M252 228v54M470 228v54"/>
          </g>
          <g fill="#A7B0AC" font-family="monospace" font-size="9" text-anchor="middle">
            <text x="143" y="252">MODEL</text><text x="143" y="266">HOSTING</text>
            <text x="361" y="252">TRAINING &amp;</text><text x="361" y="266">FINE-TUNING</text>
            <text x="580" y="252">INFERENCE</text><text x="580" y="266">AT THE EDGE</text>
          </g>

          <!-- 04 CONTROL PLANE -->
          <text x="34" y="314" fill="#C9A227" font-family="monospace" font-size="9">04 · CONTROL PLANE</text>
          <g fill="none" stroke="#14A356" stroke-width="1.3">
            <rect x="34" y="322" width="158" height="50" rx="2"/>
            <rect x="200" y="322" width="158" height="50" rx="2"/>
            <rect x="366" y="322" width="158" height="50" rx="2"/>
            <rect x="532" y="322" width="158" height="50" rx="2"/>
          </g>
          <g fill="#A7B0AC" font-family="monospace" font-size="8.5" text-anchor="middle">
            <text x="113" y="344">IDENTITY &amp;</text><text x="113" y="357">ACCESS</text>
            <text x="279" y="344">POLICY</text><text x="279" y="357">GUARDRAILS</text>
            <text x="445" y="344">KEY CUSTODY</text><text x="445" y="357">(IN NIGERIA)</text>
            <text x="611" y="344">LOGGING &amp;</text><text x="611" y="357">AUDIT TRAIL</text>
          </g>

          <!-- 05 PLATFORM -->
          <text x="34" y="404" fill="#C9A227" font-family="monospace" font-size="9">05 · IN-COUNTRY PLATFORM</text>
          <g fill="none" stroke="#14A356" stroke-width="1.3">
            <rect x="34" y="412" width="212" height="50" rx="2"/>
            <rect x="256" y="412" width="212" height="50" rx="2"/>
            <rect x="478" y="412" width="212" height="50" rx="2"/>
          </g>
          <g fill="#A7B0AC" font-family="monospace" font-size="8.5" text-anchor="middle">
            <text x="140" y="434">DEDICATED</text><text x="140" y="447">INFRASTRUCTURE</text>
            <text x="362" y="434">ON-PREMISES</text><text x="362" y="447">NODES</text>
            <text x="584" y="434">TACTICAL</text><text x="584" y="447">EDGE</text>
          </g>

          <!-- 06 FACILITY -->
          <text x="34" y="494" fill="#C9A227" font-family="monospace" font-size="9">06 · FACILITY, OUR ENGINEERING CORE</text>
          <rect x="34" y="502" width="656" height="46" rx="2" fill="rgba(201,162,39,0.10)" stroke="#C9A227" stroke-width="1.6"/>
          <text x="362" y="530" fill="#C9A227" font-family="monospace" font-size="9.5" text-anchor="middle">POWER · COOLING · EARTHING &amp; LPS · PHYSICAL SECURITY · RESILIENCE</text>

          <!-- continuous compliance band -->
          <rect x="716" y="44" width="154" height="504" rx="2" fill="none" stroke="#14A356" stroke-width="1.2" stroke-dasharray="6 5"/>
          <text transform="translate(802,296) rotate(-90)" fill="#14A356" font-family="monospace" font-size="10" text-anchor="middle">CONTINUOUS COMPLIANCE EVIDENCE</text>
          <text transform="translate(820,296) rotate(-90)" fill="#6E767C" font-family="monospace" font-size="8" text-anchor="middle">CHANGE CONTROL · CONTROL TESTING · REPORTING</text>
        </svg>